<mxfile host="Electron" modified="2023-07-27T11:52:04.333Z" agent="Mozilla/5.0 (Windows NT 10.0; Win64; x64) AppleWebKit/537.36 (KHTML, like Gecko) draw.io/21.6.5 Chrome/114.0.5735.243 Electron/25.3.1 Safari/537.36" etag="0kWGfgiManYa2EjjzQ3E" version="21.6.5" type="device">
  <diagram name="Seite-1" id="2Pnt4BpfulIpVQop6G8H">
    <mxGraphModel dx="780" dy="496" grid="1" gridSize="10" guides="1" tooltips="1" connect="1" arrows="1" fold="1" page="1" pageScale="1" pageWidth="827" pageHeight="1169" math="0" shadow="0">
      <root>
        <mxCell id="0" />
        <mxCell id="1" parent="0" />
        <mxCell id="GG09bQPDJOTjV2dfAbOx-1" value="Reservierung" style="swimlane;fontStyle=1;align=center;verticalAlign=top;childLayout=stackLayout;horizontal=1;startSize=40;horizontalStack=0;resizeParent=1;resizeParentMax=0;resizeLast=0;collapsible=1;marginBottom=0;" parent="1" vertex="1">
          <mxGeometry x="980" y="570" width="200" height="204" as="geometry" />
        </mxCell>
        <mxCell id="GG09bQPDJOTjV2dfAbOx-2" value="- datum: Date" style="text;strokeColor=none;fillColor=none;align=left;verticalAlign=top;spacingLeft=4;spacingRight=4;overflow=hidden;rotatable=0;points=[[0,0.5],[1,0.5]];portConstraint=eastwest;" parent="GG09bQPDJOTjV2dfAbOx-1" vertex="1">
          <mxGeometry y="40" width="200" height="26" as="geometry" />
        </mxCell>
        <mxCell id="GG09bQPDJOTjV2dfAbOx-3" value="- name: String" style="text;strokeColor=none;fillColor=none;align=left;verticalAlign=top;spacingLeft=4;spacingRight=4;overflow=hidden;rotatable=0;points=[[0,0.5],[1,0.5]];portConstraint=eastwest;" parent="GG09bQPDJOTjV2dfAbOx-1" vertex="1">
          <mxGeometry y="66" width="200" height="26" as="geometry" />
        </mxCell>
        <mxCell id="GG09bQPDJOTjV2dfAbOx-4" value="- koffernummer: Koffer" style="text;strokeColor=none;fillColor=none;align=left;verticalAlign=top;spacingLeft=4;spacingRight=4;overflow=hidden;rotatable=0;points=[[0,0.5],[1,0.5]];portConstraint=eastwest;" parent="GG09bQPDJOTjV2dfAbOx-1" vertex="1">
          <mxGeometry y="92" width="200" height="26" as="geometry" />
        </mxCell>
        <mxCell id="GG09bQPDJOTjV2dfAbOx-5" value="" style="line;strokeWidth=1;fillColor=none;align=left;verticalAlign=middle;spacingTop=-1;spacingLeft=3;spacingRight=3;rotatable=0;labelPosition=right;points=[];portConstraint=eastwest;strokeColor=inherit;" parent="GG09bQPDJOTjV2dfAbOx-1" vertex="1">
          <mxGeometry y="118" width="200" height="8" as="geometry" />
        </mxCell>
        <mxCell id="GG09bQPDJOTjV2dfAbOx-6" value="+ gibDatum(): Date" style="text;strokeColor=none;fillColor=none;align=left;verticalAlign=top;spacingLeft=4;spacingRight=4;overflow=hidden;rotatable=0;points=[[0,0.5],[1,0.5]];portConstraint=eastwest;" parent="GG09bQPDJOTjV2dfAbOx-1" vertex="1">
          <mxGeometry y="126" width="200" height="26" as="geometry" />
        </mxCell>
        <mxCell id="KlfiDYNAokehNlhyUkAq-2" value="+ gibName(): String" style="text;strokeColor=none;fillColor=none;align=left;verticalAlign=top;spacingLeft=4;spacingRight=4;overflow=hidden;rotatable=0;points=[[0,0.5],[1,0.5]];portConstraint=eastwest;" parent="GG09bQPDJOTjV2dfAbOx-1" vertex="1">
          <mxGeometry y="152" width="200" height="26" as="geometry" />
        </mxCell>
        <mxCell id="KlfiDYNAokehNlhyUkAq-3" value="+ gibKoffer(): Koffer" style="text;strokeColor=none;fillColor=none;align=left;verticalAlign=top;spacingLeft=4;spacingRight=4;overflow=hidden;rotatable=0;points=[[0,0.5],[1,0.5]];portConstraint=eastwest;" parent="GG09bQPDJOTjV2dfAbOx-1" vertex="1">
          <mxGeometry y="178" width="200" height="26" as="geometry" />
        </mxCell>
        <mxCell id="GG09bQPDJOTjV2dfAbOx-7" value="Reservierungsliste" style="swimlane;fontStyle=1;align=center;verticalAlign=top;childLayout=stackLayout;horizontal=1;startSize=26;horizontalStack=0;resizeParent=1;resizeParentMax=0;resizeLast=0;collapsible=1;marginBottom=0;" parent="1" vertex="1">
          <mxGeometry x="160" y="130" width="330" height="242" as="geometry" />
        </mxCell>
        <mxCell id="GG09bQPDJOTjV2dfAbOx-8" value="- kofferliste: Koffer[]" style="text;strokeColor=none;fillColor=none;align=left;verticalAlign=top;spacingLeft=4;spacingRight=4;overflow=hidden;rotatable=0;points=[[0,0.5],[1,0.5]];portConstraint=eastwest;" parent="GG09bQPDJOTjV2dfAbOx-7" vertex="1">
          <mxGeometry y="26" width="330" height="26" as="geometry" />
        </mxCell>
        <mxCell id="GG09bQPDJOTjV2dfAbOx-9" value="" style="line;strokeWidth=1;fillColor=none;align=left;verticalAlign=middle;spacingTop=-1;spacingLeft=3;spacingRight=3;rotatable=0;labelPosition=right;points=[];portConstraint=eastwest;strokeColor=inherit;" parent="GG09bQPDJOTjV2dfAbOx-7" vertex="1">
          <mxGeometry y="52" width="330" height="8" as="geometry" />
        </mxCell>
        <mxCell id="GG09bQPDJOTjV2dfAbOx-10" value="+ reservieren(Date datum, Koffer koffer, String name): void" style="text;strokeColor=none;fillColor=none;align=left;verticalAlign=top;spacingLeft=4;spacingRight=4;overflow=hidden;rotatable=0;points=[[0,0.5],[1,0.5]];portConstraint=eastwest;" parent="GG09bQPDJOTjV2dfAbOx-7" vertex="1">
          <mxGeometry y="60" width="330" height="26" as="geometry" />
        </mxCell>
        <mxCell id="GG09bQPDJOTjV2dfAbOx-11" value="+ stonieren(Date datum, Koffer koffer): void" style="text;strokeColor=none;fillColor=none;align=left;verticalAlign=top;spacingLeft=4;spacingRight=4;overflow=hidden;rotatable=0;points=[[0,0.5],[1,0.5]];portConstraint=eastwest;" parent="GG09bQPDJOTjV2dfAbOx-7" vertex="1">
          <mxGeometry y="86" width="330" height="26" as="geometry" />
        </mxCell>
        <mxCell id="DYJYWBsRvA1DzsSXrWgL-1" value="+ istReserviert(Date datum): boolean" style="text;strokeColor=none;fillColor=none;align=left;verticalAlign=top;spacingLeft=4;spacingRight=4;overflow=hidden;rotatable=0;points=[[0,0.5],[1,0.5]];portConstraint=eastwest;" parent="GG09bQPDJOTjV2dfAbOx-7" vertex="1">
          <mxGeometry y="112" width="330" height="26" as="geometry" />
        </mxCell>
        <mxCell id="hLVEEf-DrDABM8D7n_xX-1" value="+ neuerKoffer(int nummer): void" style="text;strokeColor=none;fillColor=none;align=left;verticalAlign=top;spacingLeft=4;spacingRight=4;overflow=hidden;rotatable=0;points=[[0,0.5],[1,0.5]];portConstraint=eastwest;" parent="GG09bQPDJOTjV2dfAbOx-7" vertex="1">
          <mxGeometry y="138" width="330" height="26" as="geometry" />
        </mxCell>
        <mxCell id="hLVEEf-DrDABM8D7n_xX-2" value="+ kofferAnzeigen(): void" style="text;strokeColor=none;fillColor=none;align=left;verticalAlign=top;spacingLeft=4;spacingRight=4;overflow=hidden;rotatable=0;points=[[0,0.5],[1,0.5]];portConstraint=eastwest;" parent="GG09bQPDJOTjV2dfAbOx-7" vertex="1">
          <mxGeometry y="164" width="330" height="26" as="geometry" />
        </mxCell>
        <mxCell id="hLVEEf-DrDABM8D7n_xX-3" value="+ kofferEntfernen(int nummer): boolean" style="text;strokeColor=none;fillColor=none;align=left;verticalAlign=top;spacingLeft=4;spacingRight=4;overflow=hidden;rotatable=0;points=[[0,0.5],[1,0.5]];portConstraint=eastwest;" parent="GG09bQPDJOTjV2dfAbOx-7" vertex="1">
          <mxGeometry y="190" width="330" height="26" as="geometry" />
        </mxCell>
        <mxCell id="wRzsIxWEd2h5d38toLy1-11" value="+ speichern(): void" style="text;strokeColor=none;fillColor=none;align=left;verticalAlign=top;spacingLeft=4;spacingRight=4;overflow=hidden;rotatable=0;points=[[0,0.5],[1,0.5]];portConstraint=eastwest;" vertex="1" parent="GG09bQPDJOTjV2dfAbOx-7">
          <mxGeometry y="216" width="330" height="26" as="geometry" />
        </mxCell>
        <mxCell id="GG09bQPDJOTjV2dfAbOx-12" style="edgeStyle=orthogonalEdgeStyle;rounded=0;orthogonalLoop=1;jettySize=auto;html=1;exitX=0.5;exitY=1;exitDx=0;exitDy=0;entryX=0.5;entryY=0;entryDx=0;entryDy=0;" parent="1" source="GG09bQPDJOTjV2dfAbOx-13" target="GG09bQPDJOTjV2dfAbOx-1" edge="1">
          <mxGeometry relative="1" as="geometry" />
        </mxCell>
        <mxCell id="hLVEEf-DrDABM8D7n_xX-9" style="edgeStyle=orthogonalEdgeStyle;rounded=0;orthogonalLoop=1;jettySize=auto;html=1;exitX=1;exitY=0.5;exitDx=0;exitDy=0;entryX=1;entryY=0.857;entryDx=0;entryDy=0;entryPerimeter=0;" parent="1" source="GG09bQPDJOTjV2dfAbOx-13" target="GG09bQPDJOTjV2dfAbOx-27" edge="1">
          <mxGeometry relative="1" as="geometry" />
        </mxCell>
        <mxCell id="GG09bQPDJOTjV2dfAbOx-13" value="Datenknoten" style="swimlane;fontStyle=1;align=center;verticalAlign=top;childLayout=stackLayout;horizontal=1;startSize=40;horizontalStack=0;resizeParent=1;resizeParentMax=0;resizeLast=0;collapsible=1;marginBottom=0;" parent="1" vertex="1">
          <mxGeometry x="1000" y="390" width="160" height="98" as="geometry" />
        </mxCell>
        <mxCell id="GG09bQPDJOTjV2dfAbOx-14" value="- naechster: Knoten" style="text;strokeColor=none;fillColor=none;align=left;verticalAlign=top;spacingLeft=4;spacingRight=4;overflow=hidden;rotatable=0;points=[[0,0.5],[1,0.5]];portConstraint=eastwest;" parent="GG09bQPDJOTjV2dfAbOx-13" vertex="1">
          <mxGeometry y="40" width="160" height="26" as="geometry" />
        </mxCell>
        <mxCell id="GG09bQPDJOTjV2dfAbOx-15" value="" style="line;strokeWidth=1;fillColor=none;align=left;verticalAlign=middle;spacingTop=-1;spacingLeft=3;spacingRight=3;rotatable=0;labelPosition=right;points=[];portConstraint=eastwest;strokeColor=inherit;" parent="GG09bQPDJOTjV2dfAbOx-13" vertex="1">
          <mxGeometry y="66" width="160" height="6" as="geometry" />
        </mxCell>
        <mxCell id="wRzsIxWEd2h5d38toLy1-22" value="+ speichern(): void" style="text;strokeColor=none;fillColor=none;align=left;verticalAlign=top;spacingLeft=4;spacingRight=4;overflow=hidden;rotatable=0;points=[[0,0.5],[1,0.5]];portConstraint=eastwest;" vertex="1" parent="GG09bQPDJOTjV2dfAbOx-13">
          <mxGeometry y="72" width="160" height="26" as="geometry" />
        </mxCell>
        <mxCell id="GG09bQPDJOTjV2dfAbOx-18" value="1" style="text;html=1;align=center;verticalAlign=middle;resizable=0;points=[];autosize=1;strokeColor=none;fillColor=none;" parent="1" vertex="1">
          <mxGeometry x="1050" y="120" width="30" height="30" as="geometry" />
        </mxCell>
        <mxCell id="GG09bQPDJOTjV2dfAbOx-19" value="&amp;lt; naechster" style="text;html=1;align=center;verticalAlign=middle;resizable=0;points=[];autosize=1;strokeColor=none;fillColor=none;" parent="1" vertex="1">
          <mxGeometry x="1100" y="170" width="90" height="30" as="geometry" />
        </mxCell>
        <mxCell id="GG09bQPDJOTjV2dfAbOx-20" value="Endknoten" style="swimlane;fontStyle=1;align=center;verticalAlign=top;childLayout=stackLayout;horizontal=1;startSize=40;horizontalStack=0;resizeParent=1;resizeParentMax=0;resizeLast=0;collapsible=1;marginBottom=0;" parent="1" vertex="1">
          <mxGeometry x="790" y="390" width="160" height="48" as="geometry" />
        </mxCell>
        <mxCell id="GG09bQPDJOTjV2dfAbOx-22" value="" style="line;strokeWidth=1;fillColor=none;align=left;verticalAlign=middle;spacingTop=-1;spacingLeft=3;spacingRight=3;rotatable=0;labelPosition=right;points=[];portConstraint=eastwest;strokeColor=inherit;" parent="GG09bQPDJOTjV2dfAbOx-20" vertex="1">
          <mxGeometry y="40" width="160" height="8" as="geometry" />
        </mxCell>
        <mxCell id="GG09bQPDJOTjV2dfAbOx-24" value="&lt;&lt;interface&gt;&gt;&#xa;Knoten" style="swimlane;fontStyle=1;align=center;verticalAlign=top;childLayout=stackLayout;horizontal=1;startSize=40;horizontalStack=0;resizeParent=1;resizeParentMax=0;resizeLast=0;collapsible=1;marginBottom=0;" parent="1" vertex="1">
          <mxGeometry x="790" y="130" width="280" height="152" as="geometry" />
        </mxCell>
        <mxCell id="GG09bQPDJOTjV2dfAbOx-26" value="" style="line;strokeWidth=1;fillColor=none;align=left;verticalAlign=middle;spacingTop=-1;spacingLeft=3;spacingRight=3;rotatable=0;labelPosition=right;points=[];portConstraint=eastwest;strokeColor=inherit;" parent="GG09bQPDJOTjV2dfAbOx-24" vertex="1">
          <mxGeometry y="40" width="280" height="8" as="geometry" />
        </mxCell>
        <mxCell id="GG09bQPDJOTjV2dfAbOx-27" value="+ reservieren(Reservierung inhalt): Knoten" style="text;strokeColor=none;fillColor=none;align=left;verticalAlign=top;spacingLeft=4;spacingRight=4;overflow=hidden;rotatable=0;points=[[0,0.5],[1,0.5]];portConstraint=eastwest;" parent="GG09bQPDJOTjV2dfAbOx-24" vertex="1">
          <mxGeometry y="48" width="280" height="26" as="geometry" />
        </mxCell>
        <mxCell id="hLVEEf-DrDABM8D7n_xX-4" value="+ stonieren(Date datum, Koffer koffer): void" style="text;strokeColor=none;fillColor=none;align=left;verticalAlign=top;spacingLeft=4;spacingRight=4;overflow=hidden;rotatable=0;points=[[0,0.5],[1,0.5]];portConstraint=eastwest;" parent="GG09bQPDJOTjV2dfAbOx-24" vertex="1">
          <mxGeometry y="74" width="280" height="26" as="geometry" />
        </mxCell>
        <mxCell id="hLVEEf-DrDABM8D7n_xX-5" value="+ gibData(): Reservierung" style="text;strokeColor=none;fillColor=none;align=left;verticalAlign=top;spacingLeft=4;spacingRight=4;overflow=hidden;rotatable=0;points=[[0,0.5],[1,0.5]];portConstraint=eastwest;" parent="GG09bQPDJOTjV2dfAbOx-24" vertex="1">
          <mxGeometry y="100" width="280" height="26" as="geometry" />
        </mxCell>
        <mxCell id="hLVEEf-DrDABM8D7n_xX-6" value="+ gibNaechster(): Knoten" style="text;strokeColor=none;fillColor=none;align=left;verticalAlign=top;spacingLeft=4;spacingRight=4;overflow=hidden;rotatable=0;points=[[0,0.5],[1,0.5]];portConstraint=eastwest;" parent="GG09bQPDJOTjV2dfAbOx-24" vertex="1">
          <mxGeometry y="126" width="280" height="26" as="geometry" />
        </mxCell>
        <mxCell id="GG09bQPDJOTjV2dfAbOx-28" value="" style="endArrow=block;endSize=16;endFill=0;html=1;rounded=0;exitX=0.5;exitY=0;exitDx=0;exitDy=0;" parent="1" source="GG09bQPDJOTjV2dfAbOx-20" target="GG09bQPDJOTjV2dfAbOx-24" edge="1">
          <mxGeometry width="160" relative="1" as="geometry">
            <mxPoint x="670" y="323.9999999999999" as="sourcePoint" />
            <mxPoint x="830" y="249.9999999999999" as="targetPoint" />
          </mxGeometry>
        </mxCell>
        <mxCell id="GG09bQPDJOTjV2dfAbOx-29" value="" style="endArrow=block;endSize=16;endFill=0;html=1;rounded=0;exitX=0.5;exitY=0;exitDx=0;exitDy=0;" parent="1" source="GG09bQPDJOTjV2dfAbOx-13" target="GG09bQPDJOTjV2dfAbOx-24" edge="1">
          <mxGeometry width="160" relative="1" as="geometry">
            <mxPoint x="850" y="320" as="sourcePoint" />
            <mxPoint x="927.7599999999998" y="242.00199999999995" as="targetPoint" />
          </mxGeometry>
        </mxCell>
        <mxCell id="GG09bQPDJOTjV2dfAbOx-30" value="root &amp;gt;" style="text;html=1;align=center;verticalAlign=middle;resizable=0;points=[];autosize=1;strokeColor=none;fillColor=none;" parent="1" vertex="1">
          <mxGeometry x="640" y="170" width="50" height="30" as="geometry" />
        </mxCell>
        <mxCell id="GG09bQPDJOTjV2dfAbOx-31" value="1" style="text;html=1;align=center;verticalAlign=middle;resizable=0;points=[];autosize=1;strokeColor=none;fillColor=none;" parent="1" vertex="1">
          <mxGeometry x="760" y="170" width="30" height="30" as="geometry" />
        </mxCell>
        <mxCell id="GG09bQPDJOTjV2dfAbOx-32" value="daten&amp;gt;" style="text;html=1;align=center;verticalAlign=middle;resizable=0;points=[];autosize=1;strokeColor=none;fillColor=none;" parent="1" vertex="1">
          <mxGeometry x="1085" y="520" width="60" height="30" as="geometry" />
        </mxCell>
        <mxCell id="GG09bQPDJOTjV2dfAbOx-33" value="1" style="text;html=1;align=center;verticalAlign=middle;resizable=0;points=[];autosize=1;strokeColor=none;fillColor=none;" parent="1" vertex="1">
          <mxGeometry x="1080" y="540" width="30" height="30" as="geometry" />
        </mxCell>
        <mxCell id="GG09bQPDJOTjV2dfAbOx-34" value="Koffer" style="swimlane;fontStyle=1;align=center;verticalAlign=top;childLayout=stackLayout;horizontal=1;startSize=40;horizontalStack=0;resizeParent=1;resizeParentMax=0;resizeLast=0;collapsible=1;marginBottom=0;" parent="1" vertex="1">
          <mxGeometry x="560" y="570" width="160" height="104" as="geometry" />
        </mxCell>
        <mxCell id="GG09bQPDJOTjV2dfAbOx-35" value="- nummer: int" style="text;strokeColor=none;fillColor=none;align=left;verticalAlign=top;spacingLeft=4;spacingRight=4;overflow=hidden;rotatable=0;points=[[0,0.5],[1,0.5]];portConstraint=eastwest;" parent="GG09bQPDJOTjV2dfAbOx-34" vertex="1">
          <mxGeometry y="40" width="160" height="26" as="geometry" />
        </mxCell>
        <mxCell id="GG09bQPDJOTjV2dfAbOx-36" value="" style="line;strokeWidth=1;fillColor=none;align=left;verticalAlign=middle;spacingTop=-1;spacingLeft=3;spacingRight=3;rotatable=0;labelPosition=right;points=[];portConstraint=eastwest;strokeColor=inherit;" parent="GG09bQPDJOTjV2dfAbOx-34" vertex="1">
          <mxGeometry y="66" width="160" height="12" as="geometry" />
        </mxCell>
        <mxCell id="wRzsIxWEd2h5d38toLy1-21" value="+ gibNummer(): int" style="text;strokeColor=none;fillColor=none;align=left;verticalAlign=top;spacingLeft=4;spacingRight=4;overflow=hidden;rotatable=0;points=[[0,0.5],[1,0.5]];portConstraint=eastwest;" vertex="1" parent="GG09bQPDJOTjV2dfAbOx-34">
          <mxGeometry y="78" width="160" height="26" as="geometry" />
        </mxCell>
        <mxCell id="GG09bQPDJOTjV2dfAbOx-39" value="1" style="text;html=1;align=center;verticalAlign=middle;resizable=0;points=[];autosize=1;strokeColor=none;fillColor=none;" parent="1" vertex="1">
          <mxGeometry x="490" y="170" width="30" height="30" as="geometry" />
        </mxCell>
        <mxCell id="GG09bQPDJOTjV2dfAbOx-40" value="" style="endArrow=none;html=1;rounded=0;" parent="1" edge="1">
          <mxGeometry width="50" height="50" relative="1" as="geometry">
            <mxPoint x="490" y="201" as="sourcePoint" />
            <mxPoint x="790" y="200" as="targetPoint" />
          </mxGeometry>
        </mxCell>
        <mxCell id="hLVEEf-DrDABM8D7n_xX-10" value="1" style="text;html=1;align=center;verticalAlign=middle;resizable=0;points=[];autosize=1;strokeColor=none;fillColor=none;" parent="1" vertex="1">
          <mxGeometry x="1070" y="170" width="30" height="30" as="geometry" />
        </mxCell>
        <mxCell id="hLVEEf-DrDABM8D7n_xX-11" value="1" style="text;html=1;align=center;verticalAlign=middle;resizable=0;points=[];autosize=1;strokeColor=none;fillColor=none;" parent="1" vertex="1">
          <mxGeometry x="1180" y="399" width="30" height="30" as="geometry" />
        </mxCell>
        <mxCell id="hLVEEf-DrDABM8D7n_xX-12" value="" style="endArrow=open;endSize=12;dashed=1;html=1;rounded=0;exitX=-0.01;exitY=0.038;exitDx=0;exitDy=0;exitPerimeter=0;" parent="1" source="GG09bQPDJOTjV2dfAbOx-3" edge="1">
          <mxGeometry width="160" relative="1" as="geometry">
            <mxPoint x="750" y="460" as="sourcePoint" />
            <mxPoint x="720" y="637" as="targetPoint" />
          </mxGeometry>
        </mxCell>
        <mxCell id="hLVEEf-DrDABM8D7n_xX-13" value="" style="endArrow=open;endSize=12;dashed=1;html=1;rounded=0;entryX=-0.012;entryY=0.923;entryDx=0;entryDy=0;entryPerimeter=0;exitX=0.604;exitY=1.115;exitDx=0;exitDy=0;exitPerimeter=0;" parent="1" source="wRzsIxWEd2h5d38toLy1-11" target="GG09bQPDJOTjV2dfAbOx-35" edge="1">
          <mxGeometry width="160" relative="1" as="geometry">
            <mxPoint x="488" y="549.998" as="sourcePoint" />
            <mxPoint x="230" y="550.01" as="targetPoint" />
            <Array as="points">
              <mxPoint x="360" y="634" />
            </Array>
          </mxGeometry>
        </mxCell>
        <mxCell id="wRzsIxWEd2h5d38toLy1-1" value="KompositumSerializer" style="swimlane;fontStyle=1;align=center;verticalAlign=top;childLayout=stackLayout;horizontal=1;startSize=26;horizontalStack=0;resizeParent=1;resizeParentMax=0;resizeLast=0;collapsible=1;marginBottom=0;whiteSpace=wrap;html=1;" vertex="1" parent="1">
          <mxGeometry x="520" y="210" width="240" height="78" as="geometry" />
        </mxCell>
        <mxCell id="wRzsIxWEd2h5d38toLy1-2" value="+ speichern(reservierungsliste): void" style="text;strokeColor=none;fillColor=none;align=left;verticalAlign=top;spacingLeft=4;spacingRight=4;overflow=hidden;rotatable=0;points=[[0,0.5],[1,0.5]];portConstraint=eastwest;whiteSpace=wrap;html=1;" vertex="1" parent="wRzsIxWEd2h5d38toLy1-1">
          <mxGeometry y="26" width="240" height="26" as="geometry" />
        </mxCell>
        <mxCell id="wRzsIxWEd2h5d38toLy1-3" value="+ laden(): reservierungsliste" style="text;strokeColor=none;fillColor=none;align=left;verticalAlign=top;spacingLeft=4;spacingRight=4;overflow=hidden;rotatable=0;points=[[0,0.5],[1,0.5]];portConstraint=eastwest;whiteSpace=wrap;html=1;" vertex="1" parent="wRzsIxWEd2h5d38toLy1-1">
          <mxGeometry y="52" width="240" height="26" as="geometry" />
        </mxCell>
        <mxCell id="wRzsIxWEd2h5d38toLy1-4" value="«interface»&lt;br&gt;&lt;b&gt;Serializable&lt;/b&gt;" style="html=1;whiteSpace=wrap;" vertex="1" parent="1">
          <mxGeometry x="580" y="330" width="110" height="50" as="geometry" />
        </mxCell>
        <mxCell id="wRzsIxWEd2h5d38toLy1-6" value="" style="endArrow=block;endSize=16;endFill=0;html=1;rounded=0;exitX=0.5;exitY=0;exitDx=0;exitDy=0;entryX=0.5;entryY=1;entryDx=0;entryDy=0;" edge="1" parent="1" target="wRzsIxWEd2h5d38toLy1-4" source="GG09bQPDJOTjV2dfAbOx-34">
          <mxGeometry width="160" relative="1" as="geometry">
            <mxPoint x="800" y="513" as="sourcePoint" />
            <mxPoint x="700" y="365" as="targetPoint" />
          </mxGeometry>
        </mxCell>
        <mxCell id="wRzsIxWEd2h5d38toLy1-7" value="" style="endArrow=block;endSize=16;endFill=0;html=1;rounded=0;exitX=0;exitY=0;exitDx=0;exitDy=0;entryX=0.673;entryY=1.073;entryDx=0;entryDy=0;entryPerimeter=0;" edge="1" parent="1" target="wRzsIxWEd2h5d38toLy1-4" source="GG09bQPDJOTjV2dfAbOx-1">
          <mxGeometry width="160" relative="1" as="geometry">
            <mxPoint x="1040" y="325" as="sourcePoint" />
            <mxPoint x="750" y="340" as="targetPoint" />
          </mxGeometry>
        </mxCell>
        <mxCell id="wRzsIxWEd2h5d38toLy1-8" value="" style="endArrow=block;endSize=16;endFill=0;html=1;rounded=0;exitX=0;exitY=0;exitDx=0;exitDy=0;entryX=1;entryY=0.25;entryDx=0;entryDy=0;" edge="1" parent="1" target="wRzsIxWEd2h5d38toLy1-4" source="GG09bQPDJOTjV2dfAbOx-13">
          <mxGeometry width="160" relative="1" as="geometry">
            <mxPoint x="1038" y="428" as="sourcePoint" />
            <mxPoint x="730" y="400" as="targetPoint" />
          </mxGeometry>
        </mxCell>
        <mxCell id="wRzsIxWEd2h5d38toLy1-9" value="" style="endArrow=block;endSize=16;endFill=0;html=1;rounded=0;entryX=0.5;entryY=0;entryDx=0;entryDy=0;" edge="1" parent="1" source="wRzsIxWEd2h5d38toLy1-1" target="wRzsIxWEd2h5d38toLy1-4">
          <mxGeometry width="160" relative="1" as="geometry">
            <mxPoint x="635" y="290" as="sourcePoint" />
            <mxPoint x="530" y="373" as="targetPoint" />
          </mxGeometry>
        </mxCell>
        <mxCell id="wRzsIxWEd2h5d38toLy1-10" value="" style="endArrow=block;endSize=16;endFill=0;html=1;rounded=0;exitX=0;exitY=0.25;exitDx=0;exitDy=0;entryX=1;entryY=0.75;entryDx=0;entryDy=0;" edge="1" parent="1" source="GG09bQPDJOTjV2dfAbOx-20" target="wRzsIxWEd2h5d38toLy1-4">
          <mxGeometry width="160" relative="1" as="geometry">
            <mxPoint x="650" y="580" as="sourcePoint" />
            <mxPoint x="645" y="390" as="targetPoint" />
          </mxGeometry>
        </mxCell>
        <mxCell id="wRzsIxWEd2h5d38toLy1-13" value="" style="endArrow=none;dashed=1;html=1;dashPattern=1 3;strokeWidth=2;rounded=0;" edge="1" parent="1" source="GG09bQPDJOTjV2dfAbOx-7" target="wRzsIxWEd2h5d38toLy1-1">
          <mxGeometry width="50" height="50" relative="1" as="geometry">
            <mxPoint x="450" y="380" as="sourcePoint" />
            <mxPoint x="500" y="330" as="targetPoint" />
          </mxGeometry>
        </mxCell>
        <mxCell id="wRzsIxWEd2h5d38toLy1-14" value="" style="endArrow=none;dashed=1;html=1;dashPattern=1 3;strokeWidth=2;rounded=0;entryX=0.417;entryY=0.041;entryDx=0;entryDy=0;entryPerimeter=0;exitX=0.697;exitY=1.09;exitDx=0;exitDy=0;exitPerimeter=0;" edge="1" parent="1" source="wRzsIxWEd2h5d38toLy1-3" target="GG09bQPDJOTjV2dfAbOx-13">
          <mxGeometry width="50" height="50" relative="1" as="geometry">
            <mxPoint x="760" y="380" as="sourcePoint" />
            <mxPoint x="810" y="330" as="targetPoint" />
          </mxGeometry>
        </mxCell>
      </root>
    </mxGraphModel>
  </diagram>
</mxfile>
